<svg xmlns="http://www.w3.org/2000/svg" viewBox="0 0 40 40" fill="none">
  <rect width="40" height="40" rx="8" fill="#7B3FE4"/>
  <path d="M20 8C13.373 8 8 13.373 8 20C8 26.627 13.373 32 20 32C26.627 32 32 26.627 32 20C32 13.373 26.627 8 20 8ZM24.5 25.5C22.567 27.433 19.433 27.433 17.5 25.5L14.5 22.5C12.567 20.567 12.567 17.433 14.5 15.5C16.433 13.567 19.567 13.567 21.5 15.5L20 17L18.5 15.5C17.4 14.4 15.6 14.4 14.5 15.5C13.4 16.6 13.4 18.4 14.5 19.5L17.5 22.5C18.6 23.6 20.4 23.6 21.5 22.5C22.6 21.4 22.6 19.6 21.5 18.5L23 17C24.933 18.933 24.933 22.067 23 24L24.5 25.5Z" fill="white"/>
</svg>
